<svg width="213" height="24" viewBox="0 0 213 24" fill="none" xmlns="http://www.w3.org/2000/svg">
<path d="M6.70455 19H0.517045V1.54545H6.75568C8.51136 1.54545 10.0227 1.89489 11.2898 2.59375C12.5568 3.28693 13.5313 4.28409 14.2131 5.58523C14.9006 6.88636 15.2443 8.44318 15.2443 10.2557C15.2443 12.0739 14.9006 13.6364 14.2131 14.9432C13.5313 16.25 12.5511 17.2528 11.2727 17.9517C10 18.6506 8.47727 19 6.70455 19ZM4.20739 15.8381H6.55114C7.64205 15.8381 8.55966 15.6449 9.30398 15.2585C10.054 14.8665 10.6165 14.2614 10.9915 13.4432C11.3722 12.6193 11.5625 11.5568 11.5625 10.2557C11.5625 8.96591 11.3722 7.91193 10.9915 7.09375C10.6165 6.27557 10.0568 5.6733 9.3125 5.28693C8.56818 4.90057 7.65057 4.70739 6.55966 4.70739H4.20739V15.8381ZM23.8757 19.2557C22.5291 19.2557 21.37 18.983 20.3984 18.4375C19.4325 17.8864 18.6882 17.108 18.1655 16.1023C17.6428 15.0909 17.3814 13.8949 17.3814 12.5142C17.3814 11.1676 17.6428 9.9858 18.1655 8.96875C18.6882 7.9517 19.424 7.15909 20.3729 6.59091C21.3274 6.02273 22.4467 5.73864 23.7308 5.73864C24.5945 5.73864 25.3984 5.87784 26.1428 6.15625C26.8928 6.42898 27.5462 6.84091 28.103 7.39205C28.6655 7.94318 29.103 8.63636 29.4155 9.47159C29.728 10.3011 29.8842 11.2727 29.8842 12.3864V13.3835H18.8303V11.1335H26.4666C26.4666 10.6108 26.353 10.1477 26.1257 9.74432C25.8984 9.34091 25.5831 9.02557 25.1797 8.7983C24.782 8.56534 24.3189 8.44886 23.7905 8.44886C23.2393 8.44886 22.7507 8.5767 22.3246 8.83239C21.9041 9.08239 21.5746 9.42045 21.3359 9.84659C21.0973 10.267 20.9751 10.7358 20.9695 11.2528V13.392C20.9695 14.0398 21.0888 14.5994 21.3274 15.071C21.5717 15.5426 21.9155 15.9062 22.3587 16.1619C22.8018 16.4176 23.3274 16.5455 23.9354 16.5455C24.3388 16.5455 24.7081 16.4886 25.0433 16.375C25.3786 16.2614 25.6655 16.0909 25.9041 15.8636C26.1428 15.6364 26.3246 15.358 26.4496 15.0284L29.8075 15.25C29.6371 16.0568 29.2876 16.7614 28.7592 17.3636C28.2365 17.9602 27.5604 18.4261 26.7308 18.7614C25.907 19.0909 24.9553 19.2557 23.8757 19.2557ZM43.1456 9.64205L39.8217 9.84659C39.7649 9.5625 39.6428 9.30682 39.4553 9.07955C39.2678 8.84659 39.0206 8.66193 38.7138 8.52557C38.4126 8.38352 38.0518 8.3125 37.6314 8.3125C37.0689 8.3125 36.5945 8.43182 36.2081 8.67045C35.8217 8.90341 35.6286 9.21591 35.6286 9.60795C35.6286 9.92045 35.7536 10.1847 36.0036 10.4006C36.2536 10.6165 36.6825 10.7898 37.2905 10.9205L39.6598 11.3977C40.9325 11.6591 41.8814 12.0795 42.5064 12.6591C43.1314 13.2386 43.4439 14 43.4439 14.9432C43.4439 15.8011 43.1911 16.554 42.6854 17.2017C42.1854 17.8494 41.4979 18.3551 40.6229 18.7188C39.7536 19.0767 38.7507 19.2557 37.6143 19.2557C35.8814 19.2557 34.5007 18.8949 33.4723 18.1733C32.4496 17.446 31.8501 16.4574 31.674 15.2074L35.245 15.0199C35.353 15.5483 35.6143 15.9517 36.0291 16.2301C36.4439 16.5028 36.9751 16.6392 37.6229 16.6392C38.2592 16.6392 38.7706 16.517 39.157 16.2727C39.549 16.0227 39.7479 15.7017 39.7536 15.3097C39.7479 14.9801 39.6087 14.7102 39.3359 14.5C39.0632 14.2841 38.6428 14.1193 38.0746 14.0057L35.8075 13.554C34.5291 13.2983 33.5774 12.8551 32.9524 12.2244C32.3331 11.5937 32.0234 10.7898 32.0234 9.8125C32.0234 8.97159 32.2507 8.24716 32.7053 7.6392C33.1655 7.03125 33.8104 6.5625 34.6399 6.23295C35.4751 5.90341 36.4524 5.73864 37.5717 5.73864C39.2251 5.73864 40.5263 6.08807 41.4751 6.78693C42.4297 7.4858 42.9865 8.4375 43.1456 9.64205ZM45.7301 19V5.90909H49.1903V8.21875H49.3438C49.6165 7.4517 50.071 6.84659 50.7074 6.40341C51.3438 5.96023 52.1051 5.73864 52.9915 5.73864C53.8892 5.73864 54.6534 5.96307 55.2841 6.41193C55.9148 6.85511 56.3352 7.45739 56.5455 8.21875H56.6818C56.9489 7.46875 57.4318 6.86932 58.1307 6.42045C58.8352 5.96591 59.6676 5.73864 60.6278 5.73864C61.8494 5.73864 62.8409 6.12784 63.6023 6.90625C64.3693 7.67898 64.7528 8.77557 64.7528 10.196V19H61.1307V10.9119C61.1307 10.1847 60.9375 9.6392 60.5511 9.27557C60.1648 8.91193 59.6818 8.73011 59.1023 8.73011C58.4432 8.73011 57.929 8.94034 57.5597 9.3608C57.1903 9.77557 57.0057 10.3239 57.0057 11.0057V19H53.4858V10.8352C53.4858 10.1932 53.3011 9.68182 52.9318 9.30114C52.5682 8.92045 52.0881 8.73011 51.4915 8.73011C51.0881 8.73011 50.7244 8.83239 50.4006 9.03693C50.0824 9.2358 49.8295 9.51705 49.642 9.88068C49.4545 10.2386 49.3608 10.6591 49.3608 11.142V19H45.7301ZM73.5355 19.2557C72.2116 19.2557 71.0668 18.9744 70.1009 18.4119C69.1406 17.8437 68.3991 17.054 67.8764 16.0426C67.3537 15.0256 67.0923 13.8466 67.0923 12.5057C67.0923 11.1534 67.3537 9.97159 67.8764 8.96023C68.3991 7.94318 69.1406 7.15341 70.1009 6.59091C71.0668 6.02273 72.2116 5.73864 73.5355 5.73864C74.8594 5.73864 76.0014 6.02273 76.9616 6.59091C77.9276 7.15341 78.6719 7.94318 79.1946 8.96023C79.7173 9.97159 79.9787 11.1534 79.9787 12.5057C79.9787 13.8466 79.7173 15.0256 79.1946 16.0426C78.6719 17.054 77.9276 17.8437 76.9616 18.4119C76.0014 18.9744 74.8594 19.2557 73.5355 19.2557ZM73.5526 16.4432C74.1548 16.4432 74.6577 16.2727 75.0611 15.9318C75.4645 15.5852 75.7685 15.1136 75.973 14.517C76.1832 13.9205 76.2884 13.2415 76.2884 12.4801C76.2884 11.7188 76.1832 11.0398 75.973 10.4432C75.7685 9.84659 75.4645 9.375 75.0611 9.02841C74.6577 8.68182 74.1548 8.50852 73.5526 8.50852C72.9446 8.50852 72.4332 8.68182 72.0185 9.02841C71.6094 9.375 71.2997 9.84659 71.0895 10.4432C70.8849 11.0398 70.7827 11.7188 70.7827 12.4801C70.7827 13.2415 70.8849 13.9205 71.0895 14.517C71.2997 15.1136 71.6094 15.5852 72.0185 15.9318C72.4332 16.2727 72.9446 16.4432 73.5526 16.4432ZM85.9702 11.4318V19H82.3395V5.90909H85.7997V8.21875H85.9531C86.2429 7.45739 86.7287 6.85511 87.4105 6.41193C88.0923 5.96307 88.919 5.73864 89.8906 5.73864C90.7997 5.73864 91.5923 5.9375 92.2685 6.33523C92.9446 6.73295 93.4702 7.30114 93.8452 8.03977C94.2202 8.77273 94.4077 9.64773 94.4077 10.6648V19H90.777V11.3125C90.7827 10.5114 90.5781 9.88636 90.1634 9.4375C89.7486 8.98295 89.1776 8.75568 88.4503 8.75568C87.9616 8.75568 87.5298 8.8608 87.1548 9.07102C86.7855 9.28125 86.4957 9.58807 86.2855 9.99148C86.081 10.3892 85.9759 10.8693 85.9702 11.4318ZM102.093 19.2131C101.099 19.2131 100.198 18.9574 99.3913 18.446C98.5902 17.929 97.9538 17.1705 97.4822 16.1705C97.0163 15.1648 96.7834 13.9318 96.7834 12.4716C96.7834 10.9716 97.0249 9.72443 97.5078 8.73011C97.9908 7.73011 98.6328 6.98295 99.4339 6.48864C100.241 5.98864 101.124 5.73864 102.085 5.73864C102.817 5.73864 103.428 5.86364 103.917 6.11364C104.411 6.35795 104.809 6.66477 105.11 7.03409C105.417 7.39773 105.65 7.75568 105.809 8.10795H105.92V1.54545H109.542V19H105.962V16.9034H105.809C105.638 17.267 105.397 17.6278 105.085 17.9858C104.778 18.3381 104.377 18.6307 103.883 18.8636C103.394 19.0966 102.798 19.2131 102.093 19.2131ZM103.244 16.3239C103.829 16.3239 104.323 16.1648 104.727 15.8466C105.136 15.5227 105.448 15.071 105.664 14.4915C105.886 13.9119 105.996 13.233 105.996 12.4545C105.996 11.6761 105.888 11 105.673 10.4261C105.457 9.85227 105.144 9.40909 104.735 9.09659C104.326 8.78409 103.829 8.62784 103.244 8.62784C102.647 8.62784 102.144 8.78977 101.735 9.11364C101.326 9.4375 101.016 9.88636 100.806 10.4602C100.596 11.0341 100.491 11.6989 100.491 12.4545C100.491 13.2159 100.596 13.8892 100.806 14.4744C101.022 15.054 101.332 15.5085 101.735 15.8381C102.144 16.1619 102.647 16.3239 103.244 16.3239ZM121.158 19H117.204L123.229 1.54545H127.985L134.002 19H130.048L125.675 5.53409H125.539L121.158 19ZM120.911 12.1392H130.252V15.0199H120.911V12.1392ZM136.035 5.90909H139.665V19.6477C139.665 20.6591 139.467 21.4773 139.069 22.1023C138.671 22.7273 138.1 23.1847 137.356 23.4744C136.617 23.7642 135.734 23.9091 134.705 23.9091C134.58 23.9091 134.461 23.9063 134.347 23.9006C134.228 23.9006 134.103 23.8977 133.972 23.892V21.054C134.069 21.0597 134.154 21.0625 134.228 21.0625C134.296 21.0682 134.37 21.071 134.45 21.071C135.035 21.071 135.444 20.946 135.677 20.696C135.915 20.4517 136.035 20.0824 136.035 19.5881V5.90909ZM137.842 4.22159C137.308 4.22159 136.847 4.04261 136.461 3.68466C136.075 3.32102 135.881 2.88636 135.881 2.38068C135.881 1.88068 136.075 1.4517 136.461 1.09375C136.847 0.730113 137.308 0.548295 137.842 0.548295C138.387 0.548295 138.85 0.730113 139.231 1.09375C139.617 1.4517 139.81 1.88068 139.81 2.38068C139.81 2.88636 139.617 3.32102 139.231 3.68466C138.85 4.04261 138.387 4.22159 137.842 4.22159ZM142.574 19V5.90909H146.205V19H142.574ZM144.398 4.22159C143.858 4.22159 143.395 4.04261 143.009 3.68466C142.628 3.32102 142.438 2.88636 142.438 2.38068C142.438 1.88068 142.628 1.4517 143.009 1.09375C143.395 0.730113 143.858 0.548295 144.398 0.548295C144.938 0.548295 145.398 0.730113 145.778 1.09375C146.165 1.4517 146.358 1.88068 146.358 2.38068C146.358 2.88636 146.165 3.32102 145.778 3.68466C145.398 4.04261 144.938 4.22159 144.398 4.22159ZM149.113 19V5.90909H152.573V8.21875H152.727C152.999 7.4517 153.454 6.84659 154.09 6.40341C154.727 5.96023 155.488 5.73864 156.374 5.73864C157.272 5.73864 158.036 5.96307 158.667 6.41193C159.298 6.85511 159.718 7.45739 159.928 8.21875H160.065C160.332 7.46875 160.815 6.86932 161.513 6.42045C162.218 5.96591 163.05 5.73864 164.011 5.73864C165.232 5.73864 166.224 6.12784 166.985 6.90625C167.752 7.67898 168.136 8.77557 168.136 10.196V19H164.513V10.9119C164.513 10.1847 164.32 9.6392 163.934 9.27557C163.548 8.91193 163.065 8.73011 162.485 8.73011C161.826 8.73011 161.312 8.94034 160.942 9.3608C160.573 9.77557 160.388 10.3239 160.388 11.0057V19H156.869V10.8352C156.869 10.1932 156.684 9.68182 156.315 9.30114C155.951 8.92045 155.471 8.73011 154.874 8.73011C154.471 8.73011 154.107 8.83239 153.783 9.03693C153.465 9.2358 153.212 9.51705 153.025 9.88068C152.837 10.2386 152.744 10.6591 152.744 11.142V19H149.113ZM179.398 13.4261V5.90909H183.029V19H179.543V16.6222H179.407C179.112 17.3892 178.62 18.0057 177.933 18.4716C177.251 18.9375 176.418 19.1705 175.435 19.1705C174.56 19.1705 173.79 18.9716 173.126 18.5739C172.461 18.1761 171.941 17.6108 171.566 16.8778C171.197 16.1449 171.009 15.267 171.004 14.2443V5.90909H174.634V13.5966C174.64 14.3693 174.847 14.9801 175.256 15.429C175.665 15.8778 176.214 16.1023 176.901 16.1023C177.339 16.1023 177.748 16.0028 178.129 15.804C178.509 15.5994 178.816 15.2983 179.049 14.9006C179.288 14.5028 179.404 14.0114 179.398 13.4261ZM190.757 19.2131C189.763 19.2131 188.862 18.9574 188.055 18.446C187.254 17.929 186.618 17.1705 186.146 16.1705C185.68 15.1648 185.447 13.9318 185.447 12.4716C185.447 10.9716 185.689 9.72443 186.172 8.73011C186.655 7.73011 187.297 6.98295 188.098 6.48864C188.905 5.98864 189.788 5.73864 190.749 5.73864C191.482 5.73864 192.092 5.86364 192.581 6.11364C193.075 6.35795 193.473 6.66477 193.774 7.03409C194.081 7.39773 194.314 7.75568 194.473 8.10795H194.584V1.54545H198.206V19H194.626V16.9034H194.473C194.303 17.267 194.061 17.6278 193.749 17.9858C193.442 18.3381 193.041 18.6307 192.547 18.8636C192.058 19.0966 191.462 19.2131 190.757 19.2131ZM191.908 16.3239C192.493 16.3239 192.987 16.1648 193.391 15.8466C193.8 15.5227 194.112 15.071 194.328 14.4915C194.55 13.9119 194.661 13.233 194.661 12.4545C194.661 11.6761 194.553 11 194.337 10.4261C194.121 9.85227 193.808 9.40909 193.399 9.09659C192.99 8.78409 192.493 8.62784 191.908 8.62784C191.311 8.62784 190.808 8.78977 190.399 9.11364C189.99 9.4375 189.68 9.88636 189.47 10.4602C189.26 11.0341 189.155 11.6989 189.155 12.4545C189.155 13.2159 189.26 13.8892 189.47 14.4744C189.686 15.054 189.996 15.5085 190.399 15.8381C190.808 16.1619 191.311 16.3239 191.908 16.3239ZM204.924 19.2472C204.089 19.2472 203.344 19.1023 202.691 18.8125C202.038 18.517 201.521 18.0824 201.14 17.5085C200.765 16.929 200.577 16.2074 200.577 15.3438C200.577 14.6165 200.711 14.0057 200.978 13.5114C201.245 13.017 201.609 12.6193 202.069 12.3182C202.529 12.017 203.052 11.7898 203.637 11.6364C204.228 11.483 204.847 11.375 205.495 11.3125C206.256 11.233 206.87 11.1591 207.336 11.0909C207.802 11.017 208.14 10.9091 208.35 10.767C208.56 10.625 208.665 10.4148 208.665 10.1364V10.0852C208.665 9.54545 208.495 9.12784 208.154 8.83239C207.819 8.53693 207.342 8.3892 206.722 8.3892C206.069 8.3892 205.549 8.53409 205.163 8.82386C204.776 9.10795 204.521 9.46591 204.396 9.89773L201.038 9.625C201.208 8.82955 201.543 8.14205 202.043 7.5625C202.543 6.97727 203.188 6.52841 203.978 6.21591C204.773 5.89773 205.694 5.73864 206.739 5.73864C207.467 5.73864 208.163 5.82386 208.827 5.99432C209.498 6.16477 210.092 6.42898 210.609 6.78693C211.131 7.14489 211.543 7.60511 211.844 8.16761C212.146 8.72443 212.296 9.39205 212.296 10.1705V19H208.853V17.1847H208.751C208.54 17.5938 208.259 17.9545 207.907 18.267C207.555 18.5739 207.131 18.8153 206.637 18.9915C206.143 19.1619 205.572 19.2472 204.924 19.2472ZM205.964 16.7415C206.498 16.7415 206.969 16.6364 207.379 16.4261C207.788 16.2102 208.109 15.9205 208.342 15.5568C208.575 15.1932 208.691 14.7812 208.691 14.321V12.9318C208.577 13.0057 208.421 13.0739 208.222 13.1364C208.029 13.1932 207.81 13.2472 207.566 13.2983C207.322 13.3437 207.077 13.3864 206.833 13.4261C206.589 13.4602 206.367 13.4915 206.168 13.5199C205.742 13.5824 205.37 13.6818 205.052 13.8182C204.734 13.9545 204.487 14.1392 204.31 14.3722C204.134 14.5994 204.046 14.8835 204.046 15.2244C204.046 15.7188 204.225 16.0966 204.583 16.358C204.947 16.6136 205.407 16.7415 205.964 16.7415Z" fill="black"/>
</svg>
