<svg width="199" height="24" viewBox="0 0 199 24" fill="none" xmlns="http://www.w3.org/2000/svg">
<path d="M6.87251 19H0.685014V1.54545H6.92365C8.67933 1.54545 10.1907 1.89489 11.4577 2.59375C12.7248 3.28693 13.6992 4.28409 14.381 5.58523C15.0685 6.88636 15.4123 8.44318 15.4123 10.2557C15.4123 12.0739 15.0685 13.6364 14.381 14.9432C13.6992 16.25 12.7191 17.2528 11.4407 17.9517C10.168 18.6506 8.64524 19 6.87251 19ZM4.37536 15.8381H6.71911C7.81001 15.8381 8.72763 15.6449 9.47195 15.2585C10.2219 14.8665 10.7844 14.2614 11.1594 13.4432C11.5401 12.6193 11.7305 11.5568 11.7305 10.2557C11.7305 8.96591 11.5401 7.91193 11.1594 7.09375C10.7844 6.27557 10.2248 5.6733 9.48047 5.28693C8.73615 4.90057 7.81854 4.70739 6.72763 4.70739H4.37536V15.8381ZM23.0437 19.2557C21.6971 19.2557 20.538 18.983 19.5664 18.4375C18.6005 17.8864 17.8562 17.108 17.3335 16.1023C16.8107 15.0909 16.5494 13.8949 16.5494 12.5142C16.5494 11.1676 16.8107 9.9858 17.3335 8.96875C17.8562 7.9517 18.592 7.15909 19.5408 6.59091C20.4954 6.02273 21.6147 5.73864 22.8988 5.73864C23.7624 5.73864 24.5664 5.87784 25.3107 6.15625C26.0607 6.42898 26.7141 6.84091 27.271 7.39205C27.8335 7.94318 28.271 8.63636 28.5835 9.47159C28.896 10.3011 29.0522 11.2727 29.0522 12.3864V13.3835H17.9982V11.1335H25.6346C25.6346 10.6108 25.521 10.1477 25.2937 9.74432C25.0664 9.34091 24.7511 9.02557 24.3477 8.7983C23.9499 8.56534 23.4869 8.44886 22.9585 8.44886C22.4073 8.44886 21.9187 8.5767 21.4925 8.83239C21.0721 9.08239 20.7425 9.42045 20.5039 9.84659C20.2653 10.267 20.1431 10.7358 20.1374 11.2528V13.392C20.1374 14.0398 20.2567 14.5994 20.4954 15.071C20.7397 15.5426 21.0835 15.9062 21.5266 16.1619C21.9698 16.4176 22.4954 16.5455 23.1033 16.5455C23.5067 16.5455 23.8761 16.4886 24.2113 16.375C24.5465 16.2614 24.8335 16.0909 25.0721 15.8636C25.3107 15.6364 25.4925 15.358 25.6175 15.0284L28.9755 15.25C28.805 16.0568 28.4556 16.7614 27.9272 17.3636C27.4045 17.9602 26.7283 18.4261 25.8988 18.7614C25.0749 19.0909 24.1232 19.2557 23.0437 19.2557ZM41.3136 9.64205L37.9897 9.84659C37.9329 9.5625 37.8107 9.30682 37.6232 9.07955C37.4357 8.84659 37.1886 8.66193 36.8817 8.52557C36.5806 8.38352 36.2198 8.3125 35.7994 8.3125C35.2369 8.3125 34.7624 8.43182 34.3761 8.67045C33.9897 8.90341 33.7965 9.21591 33.7965 9.60795C33.7965 9.92045 33.9215 10.1847 34.1715 10.4006C34.4215 10.6165 34.8505 10.7898 35.4585 10.9205L37.8278 11.3977C39.1005 11.6591 40.0494 12.0795 40.6744 12.6591C41.2994 13.2386 41.6119 14 41.6119 14.9432C41.6119 15.8011 41.359 16.554 40.8533 17.2017C40.3533 17.8494 39.6658 18.3551 38.7908 18.7188C37.9215 19.0767 36.9187 19.2557 35.7823 19.2557C34.0494 19.2557 32.6687 18.8949 31.6403 18.1733C30.6175 17.446 30.0181 16.4574 29.842 15.2074L33.413 15.0199C33.521 15.5483 33.7823 15.9517 34.1971 16.2301C34.6119 16.5028 35.1431 16.6392 35.7908 16.6392C36.4272 16.6392 36.9386 16.517 37.3249 16.2727C37.717 16.0227 37.9158 15.7017 37.9215 15.3097C37.9158 14.9801 37.7766 14.7102 37.5039 14.5C37.2312 14.2841 36.8107 14.1193 36.2425 14.0057L33.9755 13.554C32.6971 13.2983 31.7454 12.8551 31.1204 12.2244C30.5011 11.5937 30.1914 10.7898 30.1914 9.8125C30.1914 8.97159 30.4187 8.24716 30.8732 7.6392C31.3335 7.03125 31.9783 6.5625 32.8079 6.23295C33.6431 5.90341 34.6204 5.73864 35.7397 5.73864C37.3931 5.73864 38.6942 6.08807 39.6431 6.78693C40.5977 7.4858 41.1545 8.4375 41.3136 9.64205ZM42.8981 19V5.90909H46.3583V8.21875H46.5117C46.7844 7.4517 47.239 6.84659 47.8754 6.40341C48.5117 5.96023 49.2731 5.73864 50.1594 5.73864C51.0572 5.73864 51.8214 5.96307 52.4521 6.41193C53.0827 6.85511 53.5032 7.45739 53.7134 8.21875H53.8498C54.1168 7.46875 54.5998 6.86932 55.2987 6.42045C56.0032 5.96591 56.8356 5.73864 57.7958 5.73864C59.0174 5.73864 60.0089 6.12784 60.7702 6.90625C61.5373 7.67898 61.9208 8.77557 61.9208 10.196V19H58.2987V10.9119C58.2987 10.1847 58.1055 9.6392 57.7191 9.27557C57.3327 8.91193 56.8498 8.73011 56.2702 8.73011C55.6112 8.73011 55.0969 8.94034 54.7276 9.3608C54.3583 9.77557 54.1737 10.3239 54.1737 11.0057V19H50.6538V10.8352C50.6538 10.1932 50.4691 9.68182 50.0998 9.30114C49.7362 8.92045 49.256 8.73011 48.6594 8.73011C48.256 8.73011 47.8924 8.83239 47.5685 9.03693C47.2504 9.2358 46.9975 9.51705 46.81 9.88068C46.6225 10.2386 46.5288 10.6591 46.5288 11.142V19H42.8981ZM69.7035 19.2557C68.3796 19.2557 67.2347 18.9744 66.2688 18.4119C65.3086 17.8437 64.5671 17.054 64.0444 16.0426C63.5217 15.0256 63.2603 13.8466 63.2603 12.5057C63.2603 11.1534 63.5217 9.97159 64.0444 8.96023C64.5671 7.94318 65.3086 7.15341 66.2688 6.59091C67.2347 6.02273 68.3796 5.73864 69.7035 5.73864C71.0273 5.73864 72.1694 6.02273 73.1296 6.59091C74.0955 7.15341 74.8398 7.94318 75.3626 8.96023C75.8853 9.97159 76.1467 11.1534 76.1467 12.5057C76.1467 13.8466 75.8853 15.0256 75.3626 16.0426C74.8398 17.054 74.0955 17.8437 73.1296 18.4119C72.1694 18.9744 71.0273 19.2557 69.7035 19.2557ZM69.7205 16.4432C70.3228 16.4432 70.8256 16.2727 71.229 15.9318C71.6325 15.5852 71.9364 15.1136 72.141 14.517C72.3512 13.9205 72.4563 13.2415 72.4563 12.4801C72.4563 11.7188 72.3512 11.0398 72.141 10.4432C71.9364 9.84659 71.6325 9.375 71.229 9.02841C70.8256 8.68182 70.3228 8.50852 69.7205 8.50852C69.1126 8.50852 68.6012 8.68182 68.1864 9.02841C67.7773 9.375 67.4677 9.84659 67.2575 10.4432C67.0529 11.0398 66.9506 11.7188 66.9506 12.4801C66.9506 13.2415 67.0529 13.9205 67.2575 14.517C67.4677 15.1136 67.7773 15.5852 68.1864 15.9318C68.6012 16.2727 69.1126 16.4432 69.7205 16.4432ZM81.1381 11.4318V19H77.5075V5.90909H80.9677V8.21875H81.1211C81.4109 7.45739 81.8967 6.85511 82.5785 6.41193C83.2603 5.96307 84.087 5.73864 85.0586 5.73864C85.9677 5.73864 86.7603 5.9375 87.4364 6.33523C88.1126 6.73295 88.6381 7.30114 89.0131 8.03977C89.3881 8.77273 89.5756 9.64773 89.5756 10.6648V19H85.945V11.3125C85.9506 10.5114 85.7461 9.88636 85.3313 9.4375C84.9165 8.98295 84.3455 8.75568 83.6183 8.75568C83.1296 8.75568 82.6978 8.8608 82.3228 9.07102C81.9535 9.28125 81.6637 9.58807 81.4535 9.99148C81.2489 10.3892 81.1438 10.8693 81.1381 11.4318ZM96.261 19.2131C95.2667 19.2131 94.3661 18.9574 93.5593 18.446C92.7582 17.929 92.1218 17.1705 91.6502 16.1705C91.1843 15.1648 90.9513 13.9318 90.9513 12.4716C90.9513 10.9716 91.1928 9.72443 91.6758 8.73011C92.1587 7.73011 92.8008 6.98295 93.6019 6.48864C94.4087 5.98864 95.2923 5.73864 96.2525 5.73864C96.9854 5.73864 97.5962 5.86364 98.0849 6.11364C98.5792 6.35795 98.9769 6.66477 99.2781 7.03409C99.5849 7.39773 99.8178 7.75568 99.9769 8.10795H100.088V1.54545H103.71V19H100.13V16.9034H99.9769C99.8065 17.267 99.565 17.6278 99.2525 17.9858C98.9457 18.3381 98.5451 18.6307 98.0508 18.8636C97.5621 19.0966 96.9656 19.2131 96.261 19.2131ZM97.4116 16.3239C97.9968 16.3239 98.4911 16.1648 98.8945 15.8466C99.3036 15.5227 99.6161 15.071 99.832 14.4915C100.054 13.9119 100.164 13.233 100.164 12.4545C100.164 11.6761 100.056 11 99.8406 10.4261C99.6246 9.85227 99.3121 9.40909 98.9031 9.09659C98.494 8.78409 97.9968 8.62784 97.4116 8.62784C96.815 8.62784 96.3121 8.78977 95.9031 9.11364C95.494 9.4375 95.1843 9.88636 94.9741 10.4602C94.7638 11.0341 94.6587 11.6989 94.6587 12.4545C94.6587 13.2159 94.7638 13.8892 94.9741 14.4744C95.19 15.054 95.4996 15.5085 95.9031 15.8381C96.3121 16.1619 96.815 16.3239 97.4116 16.3239ZM113.326 19H109.372L115.397 1.54545H120.153L126.17 19H122.216L117.843 5.53409H117.707L113.326 19ZM113.079 12.1392H122.42V15.0199H113.079V12.1392ZM127.203 5.90909H130.833V19.6477C130.833 20.6591 130.635 21.4773 130.237 22.1023C129.839 22.7273 129.268 23.1847 128.524 23.4744C127.785 23.7642 126.902 23.9091 125.873 23.9091C125.748 23.9091 125.629 23.9063 125.515 23.9006C125.396 23.9006 125.271 23.8977 125.14 23.892V21.054C125.237 21.0597 125.322 21.0625 125.396 21.0625C125.464 21.0682 125.538 21.071 125.618 21.071C126.203 21.071 126.612 20.946 126.845 20.696C127.083 20.4517 127.203 20.0824 127.203 19.5881V5.90909ZM129.01 4.22159C128.475 4.22159 128.015 4.04261 127.629 3.68466C127.243 3.32102 127.049 2.88636 127.049 2.38068C127.049 1.88068 127.243 1.4517 127.629 1.09375C128.015 0.730113 128.475 0.548295 129.01 0.548295C129.555 0.548295 130.018 0.730113 130.399 1.09375C130.785 1.4517 130.978 1.88068 130.978 2.38068C130.978 2.88636 130.785 3.32102 130.399 3.68466C130.018 4.04261 129.555 4.22159 129.01 4.22159ZM132.742 19V5.90909H136.373V19H132.742ZM134.566 4.22159C134.026 4.22159 133.563 4.04261 133.176 3.68466C132.796 3.32102 132.605 2.88636 132.605 2.38068C132.605 1.88068 132.796 1.4517 133.176 1.09375C133.563 0.730113 134.026 0.548295 134.566 0.548295C135.105 0.548295 135.566 0.730113 135.946 1.09375C136.333 1.4517 136.526 1.88068 136.526 2.38068C136.526 2.88636 136.333 3.32102 135.946 3.68466C135.566 4.04261 135.105 4.22159 134.566 4.22159ZM138.281 19V5.90909H141.741V8.21875H141.895C142.167 7.4517 142.622 6.84659 143.258 6.40341C143.895 5.96023 144.656 5.73864 145.542 5.73864C146.44 5.73864 147.204 5.96307 147.835 6.41193C148.466 6.85511 148.886 7.45739 149.096 8.21875H149.233C149.5 7.46875 149.983 6.86932 150.681 6.42045C151.386 5.96591 152.218 5.73864 153.179 5.73864C154.4 5.73864 155.392 6.12784 156.153 6.90625C156.92 7.67898 157.304 8.77557 157.304 10.196V19H153.681V10.9119C153.681 10.1847 153.488 9.6392 153.102 9.27557C152.716 8.91193 152.233 8.73011 151.653 8.73011C150.994 8.73011 150.48 8.94034 150.11 9.3608C149.741 9.77557 149.556 10.3239 149.556 11.0057V19H146.037V10.8352C146.037 10.1932 145.852 9.68182 145.483 9.30114C145.119 8.92045 144.639 8.73011 144.042 8.73011C143.639 8.73011 143.275 8.83239 142.951 9.03693C142.633 9.2358 142.38 9.51705 142.193 9.88068C142.005 10.2386 141.912 10.6591 141.912 11.142V19H138.281ZM167.566 13.4261V5.90909H171.197V19H167.711V16.6222H167.575C167.279 17.3892 166.788 18.0057 166.1 18.4716C165.419 18.9375 164.586 19.1705 163.603 19.1705C162.728 19.1705 161.958 18.9716 161.294 18.5739C160.629 18.1761 160.109 17.6108 159.734 16.8778C159.365 16.1449 159.177 15.267 159.172 14.2443V5.90909H162.802V13.5966C162.808 14.3693 163.015 14.9801 163.424 15.429C163.833 15.8778 164.382 16.1023 165.069 16.1023C165.507 16.1023 165.916 16.0028 166.297 15.804C166.677 15.5994 166.984 15.2983 167.217 14.9006C167.456 14.5028 167.572 14.0114 167.566 13.4261ZM177.925 19.2131C176.931 19.2131 176.03 18.9574 175.223 18.446C174.422 17.929 173.786 17.1705 173.314 16.1705C172.848 15.1648 172.615 13.9318 172.615 12.4716C172.615 10.9716 172.857 9.72443 173.34 8.73011C173.823 7.73011 174.465 6.98295 175.266 6.48864C176.073 5.98864 176.956 5.73864 177.917 5.73864C178.65 5.73864 179.26 5.86364 179.749 6.11364C180.243 6.35795 180.641 6.66477 180.942 7.03409C181.249 7.39773 181.482 7.75568 181.641 8.10795H181.752V1.54545H185.374V19H181.794V16.9034H181.641C181.471 17.267 181.229 17.6278 180.917 17.9858C180.61 18.3381 180.209 18.6307 179.715 18.8636C179.226 19.0966 178.63 19.2131 177.925 19.2131ZM179.076 16.3239C179.661 16.3239 180.155 16.1648 180.559 15.8466C180.968 15.5227 181.28 15.071 181.496 14.4915C181.718 13.9119 181.828 13.233 181.828 12.4545C181.828 11.6761 181.721 11 181.505 10.4261C181.289 9.85227 180.976 9.40909 180.567 9.09659C180.158 8.78409 179.661 8.62784 179.076 8.62784C178.479 8.62784 177.976 8.78977 177.567 9.11364C177.158 9.4375 176.848 9.88636 176.638 10.4602C176.428 11.0341 176.323 11.6989 176.323 12.4545C176.323 13.2159 176.428 13.8892 176.638 14.4744C176.854 15.054 177.164 15.5085 177.567 15.8381C177.976 16.1619 178.479 16.3239 179.076 16.3239ZM191.092 19.2472C190.257 19.2472 189.512 19.1023 188.859 18.8125C188.206 18.517 187.689 18.0824 187.308 17.5085C186.933 16.929 186.745 16.2074 186.745 15.3438C186.745 14.6165 186.879 14.0057 187.146 13.5114C187.413 13.017 187.777 12.6193 188.237 12.3182C188.697 12.017 189.22 11.7898 189.805 11.6364C190.396 11.483 191.015 11.375 191.663 11.3125C192.424 11.233 193.038 11.1591 193.504 11.0909C193.97 11.017 194.308 10.9091 194.518 10.767C194.728 10.625 194.833 10.4148 194.833 10.1364V10.0852C194.833 9.54545 194.663 9.12784 194.322 8.83239C193.987 8.53693 193.51 8.3892 192.89 8.3892C192.237 8.3892 191.717 8.53409 191.331 8.82386C190.944 9.10795 190.689 9.46591 190.564 9.89773L187.206 9.625C187.376 8.82955 187.711 8.14205 188.211 7.5625C188.711 6.97727 189.356 6.52841 190.146 6.21591C190.941 5.89773 191.862 5.73864 192.907 5.73864C193.635 5.73864 194.331 5.82386 194.995 5.99432C195.666 6.16477 196.26 6.42898 196.777 6.78693C197.299 7.14489 197.711 7.60511 198.012 8.16761C198.314 8.72443 198.464 9.39205 198.464 10.1705V19H195.021V17.1847H194.919C194.708 17.5938 194.427 17.9545 194.075 18.267C193.723 18.5739 193.299 18.8153 192.805 18.9915C192.311 19.1619 191.74 19.2472 191.092 19.2472ZM192.132 16.7415C192.666 16.7415 193.137 16.6364 193.547 16.4261C193.956 16.2102 194.277 15.9205 194.51 15.5568C194.743 15.1932 194.859 14.7812 194.859 14.321V12.9318C194.745 13.0057 194.589 13.0739 194.39 13.1364C194.197 13.1932 193.978 13.2472 193.734 13.2983C193.49 13.3437 193.245 13.3864 193.001 13.4261C192.757 13.4602 192.535 13.4915 192.336 13.5199C191.91 13.5824 191.538 13.6818 191.22 13.8182C190.902 13.9545 190.654 14.1392 190.478 14.3722C190.302 14.5994 190.214 14.8835 190.214 15.2244C190.214 15.7188 190.393 16.0966 190.751 16.358C191.115 16.6136 191.575 16.7415 192.132 16.7415Z" fill="white"/>
</svg>
